<svg width="141" height="24" viewBox="0 0 141 24" fill="none" xmlns="http://www.w3.org/2000/svg">
<g clip-path="url(#clip0_3_606)">
<path fill-rule="evenodd" clip-rule="evenodd" d="M8 5.33333H2V9.77777V14.2222H8V18.6667H14V14.2222V9.77777H8V5.33333Z" fill="#0D121C"/>
</g>
<path d="M33.458 18.75V5.736H38.174C39.878 5.736 41.141 6.03 41.963 6.618C42.791 7.2 43.205 8.043 43.205 9.147C43.205 9.795 43.04 10.359 42.71 10.839C42.38 11.313 41.792 11.727 40.946 12.081C41.492 12.219 41.933 12.405 42.269 12.639C42.605 12.873 42.863 13.134 43.043 13.422C43.223 13.704 43.346 14.001 43.412 14.313C43.478 14.619 43.511 14.922 43.511 15.222C43.511 16.422 43.103 17.31 42.287 17.886C41.471 18.462 40.172 18.75 38.39 18.75H33.458ZM36.077 16.716H38.444C39.236 16.716 39.833 16.557 40.235 16.239C40.643 15.921 40.847 15.495 40.847 14.961C40.847 14.577 40.748 14.256 40.55 13.998C40.352 13.734 40.082 13.536 39.74 13.404C39.404 13.272 39.02 13.206 38.588 13.206H36.077V16.716ZM36.077 11.118H38.588C38.858 11.118 39.116 11.088 39.362 11.028C39.614 10.962 39.836 10.863 40.028 10.731C40.226 10.599 40.382 10.431 40.496 10.227C40.61 10.017 40.667 9.771 40.667 9.489C40.667 8.925 40.454 8.499 40.028 8.211C39.608 7.917 39.068 7.77 38.408 7.77H36.077V11.118ZM47.8773 18.93C47.2833 18.93 46.7493 18.819 46.2753 18.597C45.8013 18.375 45.4263 18.054 45.1503 17.634C44.8743 17.208 44.7363 16.692 44.7363 16.086C44.7363 15.066 45.1173 14.292 45.8793 13.764C46.6413 13.23 47.8443 12.954 49.4883 12.936L50.6493 12.918V12.36C50.6493 11.934 50.5233 11.607 50.2713 11.379C50.0253 11.145 49.6413 11.031 49.1193 11.037C48.7353 11.043 48.3693 11.133 48.0213 11.307C47.6793 11.481 47.4453 11.784 47.3193 12.216H45.1323C45.1683 11.544 45.3633 10.992 45.7173 10.56C46.0713 10.122 46.5513 9.798 47.1573 9.588C47.7693 9.372 48.4623 9.264 49.2363 9.264C50.1903 9.264 50.9553 9.384 51.5313 9.624C52.1073 9.858 52.5243 10.197 52.7823 10.641C53.0403 11.079 53.1693 11.601 53.1693 12.207V18.75H50.9733L50.7573 17.148C50.4393 17.82 50.0403 18.285 49.5603 18.543C49.0863 18.801 48.5253 18.93 47.8773 18.93ZM48.7593 17.202C48.9993 17.202 49.2303 17.16 49.4523 17.076C49.6803 16.986 49.8813 16.869 50.0553 16.725C50.2353 16.575 50.3793 16.407 50.4873 16.221C50.5953 16.035 50.6493 15.843 50.6493 15.645V14.268L49.7043 14.286C49.2663 14.292 48.8583 14.346 48.4803 14.448C48.1023 14.544 47.7963 14.703 47.5623 14.925C47.3343 15.147 47.2203 15.447 47.2203 15.825C47.2203 16.257 47.3703 16.596 47.6703 16.842C47.9703 17.082 48.3333 17.202 48.7593 17.202ZM60.4096 18.93C59.9476 18.93 59.5486 18.87 59.2126 18.75C58.8766 18.63 58.5916 18.471 58.3576 18.273C58.1236 18.069 57.9316 17.844 57.7816 17.598C57.6316 17.352 57.5146 17.1 57.4306 16.842L57.1336 18.75H55.2256V5.376H57.8626V10.704C57.9766 10.506 58.1236 10.32 58.3036 10.146C58.4836 9.972 58.6936 9.819 58.9336 9.687C59.1736 9.555 59.4376 9.453 59.7256 9.381C60.0196 9.303 60.3316 9.264 60.6616 9.264C61.8196 9.264 62.7256 9.681 63.3796 10.515C64.0396 11.349 64.3696 12.525 64.3696 14.043C64.3696 15.027 64.2196 15.885 63.9196 16.617C63.6196 17.349 63.1756 17.919 62.5876 18.327C61.9996 18.729 61.2736 18.93 60.4096 18.93ZM59.8336 17.04C60.3976 17.04 60.8656 16.809 61.2376 16.347C61.6156 15.879 61.8046 15.099 61.8046 14.007C61.8046 13.041 61.6246 12.327 61.2646 11.865C60.9106 11.403 60.4276 11.172 59.8156 11.172C59.3776 11.172 59.0146 11.277 58.7266 11.487C58.4386 11.691 58.2226 12.003 58.0786 12.423C57.9406 12.843 57.8686 13.371 57.8626 14.007C57.8626 15.105 58.0246 15.885 58.3486 16.347C58.6786 16.809 59.1736 17.04 59.8336 17.04ZM66.9163 21.72C66.2803 21.72 65.8303 21.666 65.5663 21.558C65.3083 21.456 65.1793 21.405 65.1793 21.405V19.731L66.0973 19.767C66.4993 19.791 66.8233 19.77 67.0693 19.704C67.3153 19.644 67.5013 19.563 67.6273 19.461C67.7593 19.359 67.8523 19.251 67.9063 19.137C67.9603 19.029 67.9993 18.942 68.0233 18.876L68.1943 18.363L64.5763 9.444H67.1773L69.4093 15.51L71.6683 9.444H74.2333L70.4623 18.804C70.1383 19.596 69.7963 20.202 69.4363 20.622C69.0763 21.042 68.6863 21.33 68.2663 21.486C67.8523 21.642 67.4023 21.72 66.9163 21.72ZM84.1963 5.736H86.8243V18.75H84.4573L78.2743 9.795V18.75H75.6553V5.736H78.2563L84.1963 14.349V5.736ZM91.8148 18.93C91.2208 18.93 90.6868 18.819 90.2128 18.597C89.7388 18.375 89.3638 18.054 89.0878 17.634C88.8118 17.208 88.6738 16.692 88.6738 16.086C88.6738 15.066 89.0548 14.292 89.8168 13.764C90.5788 13.23 91.7818 12.954 93.4258 12.936L94.5868 12.918V12.36C94.5868 11.934 94.4608 11.607 94.2088 11.379C93.9628 11.145 93.5788 11.031 93.0568 11.037C92.6728 11.043 92.3068 11.133 91.9588 11.307C91.6168 11.481 91.3828 11.784 91.2568 12.216H89.0698C89.1058 11.544 89.3008 10.992 89.6548 10.56C90.0088 10.122 90.4888 9.798 91.0948 9.588C91.7068 9.372 92.3998 9.264 93.1738 9.264C94.1278 9.264 94.8928 9.384 95.4688 9.624C96.0448 9.858 96.4618 10.197 96.7198 10.641C96.9778 11.079 97.1068 11.601 97.1068 12.207V18.75H94.9108L94.6948 17.148C94.3768 17.82 93.9778 18.285 93.4978 18.543C93.0238 18.801 92.4628 18.93 91.8148 18.93ZM92.6968 17.202C92.9368 17.202 93.1678 17.16 93.3898 17.076C93.6178 16.986 93.8188 16.869 93.9928 16.725C94.1728 16.575 94.3168 16.407 94.4248 16.221C94.5328 16.035 94.5868 15.843 94.5868 15.645V14.268L93.6418 14.286C93.2038 14.292 92.7958 14.346 92.4178 14.448C92.0398 14.544 91.7338 14.703 91.4998 14.925C91.2718 15.147 91.1578 15.447 91.1578 15.825C91.1578 16.257 91.3078 16.596 91.6078 16.842C91.9078 17.082 92.2708 17.202 92.6968 17.202ZM99.1632 18.75V9.444H101.737V10.758C102.019 10.35 102.397 9.999 102.871 9.705C103.351 9.411 103.954 9.264 104.68 9.264C104.998 9.264 105.322 9.321 105.652 9.435C105.982 9.549 106.291 9.717 106.579 9.939C106.873 10.155 107.11 10.428 107.29 10.758C107.59 10.332 107.983 9.978 108.469 9.696C108.961 9.408 109.507 9.264 110.107 9.264C110.455 9.264 110.806 9.321 111.16 9.435C111.52 9.549 111.85 9.735 112.15 9.993C112.45 10.251 112.69 10.596 112.87 11.028C113.056 11.454 113.149 11.982 113.149 12.612V18.75H110.521V12.936C110.521 12.564 110.446 12.267 110.296 12.045C110.152 11.817 109.966 11.655 109.738 11.559C109.516 11.457 109.279 11.406 109.027 11.406C108.793 11.406 108.556 11.454 108.316 11.55C108.076 11.64 107.872 11.787 107.704 11.991C107.536 12.195 107.452 12.462 107.452 12.792V18.75H104.833V12.702C104.833 12.42 104.758 12.183 104.608 11.991C104.458 11.799 104.269 11.655 104.041 11.559C103.819 11.457 103.591 11.406 103.357 11.406C103.117 11.406 102.877 11.457 102.637 11.559C102.397 11.655 102.196 11.808 102.034 12.018C101.872 12.222 101.791 12.48 101.791 12.792V18.75H99.1632ZM117.172 14.7C117.166 15.174 117.241 15.588 117.397 15.942C117.553 16.29 117.778 16.56 118.072 16.752C118.372 16.938 118.732 17.031 119.152 17.031C119.602 17.031 119.995 16.935 120.331 16.743C120.673 16.551 120.91 16.236 121.042 15.798H123.409C123.307 16.458 123.043 17.022 122.617 17.49C122.197 17.958 121.687 18.315 121.087 18.561C120.487 18.807 119.863 18.93 119.215 18.93C118.297 18.93 117.487 18.738 116.785 18.354C116.089 17.964 115.546 17.415 115.156 16.707C114.766 15.999 114.571 15.165 114.571 14.205C114.571 13.275 114.748 12.438 115.102 11.694C115.456 10.944 115.969 10.353 116.641 9.921C117.319 9.483 118.132 9.264 119.08 9.264C120.028 9.264 120.823 9.465 121.465 9.867C122.113 10.263 122.599 10.818 122.923 11.532C123.253 12.24 123.418 13.059 123.418 13.989V14.7H117.172ZM117.163 13.134H120.961C120.961 12.762 120.892 12.42 120.754 12.108C120.616 11.796 120.406 11.55 120.124 11.37C119.848 11.19 119.5 11.1 119.08 11.1C118.672 11.1 118.324 11.199 118.036 11.397C117.754 11.589 117.538 11.841 117.388 12.153C117.238 12.465 117.163 12.792 117.163 13.134ZM128.636 18.93C127.988 18.93 127.364 18.825 126.764 18.615C126.164 18.399 125.657 18.063 125.243 17.607C124.829 17.145 124.565 16.548 124.451 15.816H126.728C126.806 16.146 126.947 16.407 127.151 16.599C127.361 16.791 127.598 16.929 127.862 17.013C128.126 17.091 128.378 17.13 128.618 17.13C129.122 17.13 129.527 17.052 129.833 16.896C130.145 16.734 130.301 16.488 130.301 16.158C130.301 15.906 130.208 15.705 130.022 15.555C129.842 15.405 129.542 15.291 129.122 15.213L127.484 14.871C126.662 14.697 126.002 14.403 125.504 13.989C125.006 13.569 124.751 12.975 124.739 12.207C124.739 11.649 124.886 11.148 125.18 10.704C125.48 10.26 125.921 9.909 126.503 9.651C127.085 9.393 127.799 9.264 128.645 9.264C129.791 9.264 130.706 9.516 131.39 10.02C132.08 10.524 132.431 11.235 132.443 12.153H130.247C130.181 11.793 130.001 11.517 129.707 11.325C129.419 11.127 129.056 11.028 128.618 11.028C128.162 11.028 127.787 11.109 127.493 11.271C127.199 11.433 127.052 11.679 127.052 12.009C127.052 12.255 127.172 12.45 127.412 12.594C127.652 12.732 128.024 12.852 128.528 12.954L130.04 13.296C130.562 13.422 130.985 13.596 131.309 13.818C131.639 14.034 131.894 14.271 132.074 14.529C132.254 14.787 132.377 15.048 132.443 15.312C132.515 15.57 132.551 15.804 132.551 16.014C132.551 16.632 132.386 17.16 132.056 17.598C131.726 18.03 131.267 18.36 130.679 18.588C130.091 18.816 129.41 18.93 128.636 18.93Z" fill="#0D121C"/>
<defs>
<clipPath id="clip0_3_606">
<rect width="16" height="16" fill="white" transform="translate(0 4)"/>
</clipPath>
</defs>
</svg>
